<?xml version="1.0" encoding="UTF-8" standalone="no"?>
<svg viewBox="0 0 500 500" xmlns="http://www.w3.org/2000/svg">
    <symbol id="arrow-down" viewBox="0 0 16 16">
        <path fill-rule="evenodd"
              d="M8 1a.5.5 0 0 1 .5.5v11.793l3.146-3.147a.5.5 0 0 1 .708.708l-4 4a.5.5 0 0 1-.708 0l-4-4a.5.5 0 0 1 .708-.708L7.5 13.293V1.5A.5.5 0 0 1 8 1"/>
    </symbol>
    <symbol id="arrow-left" viewBox="0 0 16 16">
        <path fill-rule="evenodd"
              d="M15 8a.5.5 0 0 0-.5-.5H2.707l3.147-3.146a.5.5 0 1 0-.708-.708l-4 4a.5.5 0 0 0 0 .708l4 4a.5.5 0 0 0 .708-.708L2.707 8.5H14.5A.5.5 0 0 0 15 8"/>
    </symbol>
    <symbol id="arrow-right" viewBox="0 0 16 16">
        <path fill-rule="evenodd"
              d="M1 8a.5.5 0 0 1 .5-.5h11.793l-3.147-3.146a.5.5 0 0 1 .708-.708l4 4a.5.5 0 0 1 0 .708l-4 4a.5.5 0 0 1-.708-.708L13.293 8.5H1.5A.5.5 0 0 1 1 8"/>
    </symbol>
    <symbol id="arrow-rotate-left" viewBox="0 0 512 512">
        <path d="M125.7 160l50.3 0c17.7 0 32 14.3 32 32s-14.3 32-32 32L48 224c-17.7 0-32-14.3-32-32L16 64c0-17.7 14.3-32 32-32s32 14.3 32 32l0 51.2L97.6 97.6c87.5-87.5 229.3-87.5 316.8 0s87.5 229.3 0 316.8s-229.3 87.5-316.8 0c-12.5-12.5-12.5-32.8 0-45.3s32.8-12.5 45.3 0c62.5 62.5 163.8 62.5 226.3 0s62.5-163.8 0-226.3s-163.8-62.5-226.3 0L125.7 160z"/>
    </symbol>
    <symbol id="arrow-up" viewBox="0 0 16 16">
        <path fill-rule="evenodd"
              d="M8 15a.5.5 0 0 0 .5-.5V2.707l3.146 3.147a.5.5 0 0 0 .708-.708l-4-4a.5.5 0 0 0-.708 0l-4 4a.5.5 0 1 0 .708.708L7.5 2.707V14.5a.5.5 0 0 0 .5.5"/>
    </symbol>
    <symbol id="arrow-rotate-right" viewBox="0 0 512 512">
        <path d="M386.3 160L336 160c-17.7 0-32 14.3-32 32s14.3 32 32 32l128 0c17.7 0 32-14.3 32-32l0-128c0-17.7-14.3-32-32-32s-32 14.3-32 32l0 51.2L414.4 97.6c-87.5-87.5-229.3-87.5-316.8 0s-87.5 229.3 0 316.8s229.3 87.5 316.8 0c12.5-12.5 12.5-32.8 0-45.3s-32.8-12.5-45.3 0c-62.5 62.5-163.8 62.5-226.3 0s-62.5-163.8 0-226.3s163.8-62.5 226.3 0L386.3 160z"/>
    </symbol>
    <symbol id="arrow-down-up" viewBox="0 0 16 16">
        <path fill-rule="evenodd"
              d="M11.5 15a.5.5 0 0 0 .5-.5V2.707l3.146 3.147a.5.5 0 0 0 .708-.708l-4-4a.5.5 0 0 0-.708 0l-4 4a.5.5 0 1 0 .708.708L11 2.707V14.5a.5.5 0 0 0 .5.5m-7-14a.5.5 0 0 1 .5.5v11.793l3.146-3.147a.5.5 0 0 1 .708.708l-4 4a.5.5 0 0 1-.708 0l-4-4a.5.5 0 0 1 .708-.708L4 13.293V1.5a.5.5 0 0 1 .5-.5"/>
    </symbol>
    <symbol id="arrow-left-right" viewBox="0 0 16 16">
        <path fill-rule="evenodd"
              d="M1 11.5a.5.5 0 0 0 .5.5h11.793l-3.147 3.146a.5.5 0 0 0 .708.708l4-4a.5.5 0 0 0 0-.708l-4-4a.5.5 0 0 0-.708.708L13.293 11H1.5a.5.5 0 0 0-.5.5m14-7a.5.5 0 0 1-.5.5H2.707l3.147 3.146a.5.5 0 1 1-.708.708l-4-4a.5.5 0 0 1 0-.708l4-4a.5.5 0 1 1 .708.708L2.707 4H14.5a.5.5 0 0 1 .5.5"/>
    </symbol>
    <symbol id="forward-step-x" viewBox="0 0 320 512">
        <path d="M52.5 440.6c-9.5 7.9-22.8 9.7-34.1 4.4S0 428.4 0 416L0 96C0 83.6 7.2 72.3 18.4 67s24.5-3.6 34.1 4.4l192 160L256 241l0-145c0-17.7 14.3-32 32-32s32 14.3 32 32l0 320c0 17.7-14.3 32-32 32s-32-14.3-32-32l0-145-11.5 9.6-192 160z"/>
    </symbol>
    <symbol id="forward-step" viewBox="0 0 16 16">
        <path d="M10.804 8 5 4.633v6.734zm.792-.696a.802.802 0 0 1 0 1.392l-6.363 3.692C4.713 12.69 4 12.345 4 11.692V4.308c0-.653.713-.998 1.233-.696z"/>
        <rect x="11.50" y="3.5" width="1.2" height="9" rx=".5"/>
    </symbol>
    <symbol id="play" viewBox="0 0 16 16">
        <path d="M10.804 8 5 4.633v6.734zm.792-.696a.802.802 0 0 1 0 1.392l-6.363 3.692C4.713 12.69 4 12.345 4 11.692V4.308c0-.653.713-.998 1.233-.696z"/>
    </symbol>
    <symbol id="pause" viewBox="0 0 16 16">
        <path d="M6 3.5a.5.5 0 0 1 .5.5v8a.5.5 0 0 1-1 0V4a.5.5 0 0 1 .5-.5m4 0a.5.5 0 0 1 .5.5v8a.5.5 0 0 1-1 0V4a.5.5 0 0 1 .5-.5"/>
    </symbol>
    <symbol id="grid-3x3" viewBox="0 0 16 16">
        <path d="M0 1.5A1.5 1.5 0 0 1 1.5 0h13A1.5 1.5 0 0 1 16 1.5v13a1.5 1.5 0 0 1-1.5 1.5h-13A1.5 1.5 0 0 1 0 14.5zM1.5 1a.5.5 0 0 0-.5.5V5h4V1zM5 6H1v4h4zm1 4h4V6H6zm-1 1H1v3.5a.5.5 0 0 0 .5.5H5zm1 0v4h4v-4zm5 0v4h3.5a.5.5 0 0 0 .5-.5V11zm0-1h4V6h-4zm0-5h4V1.5a.5.5 0 0 0-.5-.5H11zm-1 0V1H6v4z"/>
    </symbol>
    <symbol id="random" viewBox="0 0 16 16">
        <path d="M0 1.5A1.5 1.5 0 0 1 1.5 0h13A1.5 1.5 0 0 1 16 1.5v13a1.5 1.5 0 0 1-1.5 1.5h-13A1.5 1.5 0 0 1 0 14.5zM1.5 1a.5.5 0 0 0-.5.5V5h4V1zM5 6H1v4h4zm1 4h4V6H6zm-1 1H1v3.5a.5.5 0 0 0 .5.5H5zm1 0v4h4v-4zm5 0v4h3.5a.5.5 0 0 0 .5-.5V11zm0-1h4V6h-4zm0-5h4V1.5a.5.5 0 0 0-.5-.5H11zm-1 0V1H6v4z"/>
        <rect x="0.5" y="0.5" width="5" height="5"/>
        <rect x="5.5" y="0.5" width="5" height="5"/>
        <rect x="5.5" y="5.5" width="5" height="5"/>
        <rect x="10.5" y="10.5" width="5" height="5"/>
    </symbol>
    <use href="#forward-step" fill="black"/>
</svg>